<svg width="38" height="38" viewBox="0 0 38 38" fill="none" xmlns="http://www.w3.org/2000/svg">
<path d="M38 19C38 29.4937 29.4937 38 19 38C8.5063 38 0 29.4937 0 19C0 8.5063 8.5063 0 19 0C29.4937 0 38 8.5063 38 19ZM19.6802 14.0258C17.8334 14.7947 14.1404 16.3862 8.6013 18.8005C7.7007 19.1577 7.2295 19.5073 7.1877 19.8493C7.1155 20.4269 7.8394 20.6549 8.8255 20.9646L9.2397 21.0976C10.2087 21.413 11.5159 21.7816 12.1942 21.7968C12.8098 21.8095 13.4963 21.5561 14.2538 21.0368C19.4294 17.5408 22.1008 15.7744 22.268 15.7377C22.3877 15.7111 22.5511 15.6769 22.6613 15.7757C22.7734 15.8745 22.762 16.0607 22.7506 16.112C22.6784 16.4179 19.836 19.0608 18.3654 20.4269C17.9297 20.8373 17.4971 21.2509 17.0677 21.6676C16.1671 22.5359 15.4907 23.1876 17.1057 24.2516C18.7416 25.3308 20.3927 26.4062 21.9887 27.5443C22.7753 28.1067 23.4821 28.6083 24.3561 28.5304C24.8634 28.4829 25.3878 28.006 25.6538 26.581C26.2846 23.218 27.5215 15.9258 27.8065 12.92C27.823 12.6707 27.8122 12.4203 27.7742 12.1733C27.7517 11.9745 27.6555 11.7914 27.5044 11.6603C27.2764 11.4741 26.9249 11.4361 26.7691 11.438C26.0547 11.4513 24.9584 11.8313 19.6821 14.0258" fill="black"/>
</svg>
