<svg width="39" height="39" viewBox="0 0 39 39" fill="none" xmlns="http://www.w3.org/2000/svg">
<path d="M33.374 5.69559C31.6231 3.9364 29.5378 2.54154 27.2396 1.59229C24.9414 0.643046 22.4764 0.158404 19.9881 0.166606C9.56193 0.166606 1.06445 8.62158 1.06445 18.9956C1.06445 22.3205 1.94284 25.5505 3.58505 28.4005L0.911682 38.1665L10.9368 35.5445C13.7057 37.0455 16.8182 37.8435 19.9881 37.8435C30.4142 37.8435 38.9117 29.3885 38.9117 19.0146C38.9117 13.9796 36.9448 9.24858 33.374 5.69559ZM19.9881 34.6515C17.1619 34.6515 14.3931 33.8915 11.968 32.4665L11.3951 32.1245L5.43731 33.6825L7.02223 27.9065L6.64033 27.3175C5.06981 24.823 4.23606 21.9392 4.23429 18.9956C4.23429 10.3696 11.2996 3.3396 19.969 3.3396C24.17 3.3396 28.1227 4.97359 31.0825 7.93759C32.5483 9.38892 33.7099 11.1154 34.4999 13.0169C35.2899 14.9184 35.6926 16.957 35.6845 19.0146C35.7227 27.6405 28.6574 34.6515 19.9881 34.6515ZM28.6192 22.9475C28.1418 22.7195 25.8122 21.5796 25.3921 21.4086C24.9529 21.2566 24.6474 21.1806 24.3227 21.6366C23.9981 22.1115 23.1006 23.1755 22.8333 23.4795C22.566 23.8025 22.2795 23.8405 21.8021 23.5935C21.3247 23.3655 19.7971 22.8525 18.0021 21.2566C16.5891 20.0026 15.6534 18.4636 15.367 17.9886C15.0996 17.5136 15.3288 17.2666 15.577 17.0196C15.7871 16.8106 16.0544 16.4686 16.2835 16.2026C16.5127 15.9366 16.6082 15.7276 16.7609 15.4236C16.9137 15.1006 16.8373 14.8346 16.7227 14.6066C16.6082 14.3786 15.6534 12.0606 15.2715 11.1106C14.8896 10.1986 14.4886 10.3126 14.2021 10.2936H13.2855C12.9609 10.2936 12.4644 10.4076 12.0252 10.8826C11.6051 11.3576 10.383 12.4976 10.383 14.8156C10.383 17.1336 12.0825 19.3756 12.3117 19.6796C12.5408 20.0026 15.6534 24.7525 20.3891 26.7855C21.5157 27.2795 22.3941 27.5645 23.0815 27.7735C24.2082 28.1345 25.2393 28.0775 26.0604 27.9635C26.977 27.8305 28.8675 26.8235 29.2494 25.7215C29.6504 24.6195 29.6504 23.6885 29.5167 23.4795C29.383 23.2705 29.0966 23.1755 28.6192 22.9475Z" fill="black"/>
</svg>
